<?xml version="1.0" encoding="UTF-8"?>
<!DOCTYPE svg PUBLIC "-//W3C//DTD SVG 1.1//EN" "http://www.w3.org/Graphics/SVG/1.1/DTD/svg11.dtd">
<svg xmlns="http://www.w3.org/2000/svg" xmlns:xlink="http://www.w3.org/1999/xlink" width="167px" height="213px" version="1.1" style="background-color: rgb(255, 255, 255);"><defs><linearGradient x1="0%" y1="0%" x2="0%" y2="100%" id="mx-gradient-dae8fc-1-7ea6e0-1-s-0"><stop offset="0%" style="stop-color:#DAE8FC"/><stop offset="100%" style="stop-color:#7EA6E0"/></linearGradient></defs><g transform="translate(0.5,0.5)"><ellipse cx="11" cy="106" rx="10" ry="10" fill="url(#mx-gradient-dae8fc-1-7ea6e0-1-s-0)" stroke="#6c8ebf" pointer-events="none"/><ellipse cx="81" cy="11" rx="10" ry="10" fill="url(#mx-gradient-dae8fc-1-7ea6e0-1-s-0)" stroke="#6c8ebf" pointer-events="none"/><ellipse cx="81" cy="59" rx="10" ry="10" fill="url(#mx-gradient-dae8fc-1-7ea6e0-1-s-0)" stroke="#6c8ebf" pointer-events="none"/><ellipse cx="81" cy="106" rx="10" ry="10" fill="url(#mx-gradient-dae8fc-1-7ea6e0-1-s-0)" stroke="#6c8ebf" pointer-events="none"/><ellipse cx="81" cy="154" rx="10" ry="10" fill="url(#mx-gradient-dae8fc-1-7ea6e0-1-s-0)" stroke="#6c8ebf" pointer-events="none"/><ellipse cx="81" cy="201" rx="10" ry="10" fill="url(#mx-gradient-dae8fc-1-7ea6e0-1-s-0)" stroke="#6c8ebf" pointer-events="none"/><path d="M 21 106 L 64.63 106" fill="none" stroke="#000000" stroke-miterlimit="10" pointer-events="none"/><path d="M 69.88 106 L 62.88 109.5 L 64.63 106 L 62.88 102.5 Z" fill="#000000" stroke="#000000" stroke-miterlimit="10" pointer-events="none"/><path d="M 19.3 100.42 L 67.41 68.12" fill="none" stroke="#000000" stroke-miterlimit="10" pointer-events="none"/><path d="M 71.77 65.2 L 67.91 72.01 L 67.41 68.12 L 64.01 66.19 Z" fill="#000000" stroke="#000000" stroke-miterlimit="10" pointer-events="none"/><path d="M 16.97 97.98 L 71.29 24.18" fill="none" stroke="#000000" stroke-miterlimit="10" pointer-events="none"/><path d="M 74.41 19.95 L 73.07 27.66 L 71.29 24.18 L 67.44 23.51 Z" fill="#000000" stroke="#000000" stroke-miterlimit="10" pointer-events="none"/><path d="M 19.24 111.67 L 67.5 144.74" fill="none" stroke="#000000" stroke-miterlimit="10" pointer-events="none"/><path d="M 71.83 147.71 L 64.08 146.64 L 67.5 144.74 L 68.03 140.87 Z" fill="#000000" stroke="#000000" stroke-miterlimit="10" pointer-events="none"/><path d="M 16.97 114.02 L 71.29 187.82" fill="none" stroke="#000000" stroke-miterlimit="10" pointer-events="none"/><path d="M 74.41 192.05 L 67.44 188.49 L 71.29 187.82 L 73.07 184.34 Z" fill="#000000" stroke="#000000" stroke-miterlimit="10" pointer-events="none"/><ellipse cx="155" cy="11" rx="10" ry="10" fill="url(#mx-gradient-dae8fc-1-7ea6e0-1-s-0)" stroke="#6c8ebf" pointer-events="none"/><ellipse cx="155" cy="59" rx="10" ry="10" fill="url(#mx-gradient-dae8fc-1-7ea6e0-1-s-0)" stroke="#6c8ebf" pointer-events="none"/><ellipse cx="155" cy="106" rx="10" ry="10" fill="url(#mx-gradient-dae8fc-1-7ea6e0-1-s-0)" stroke="#6c8ebf" pointer-events="none"/><ellipse cx="155" cy="154" rx="10" ry="10" fill="url(#mx-gradient-dae8fc-1-7ea6e0-1-s-0)" stroke="#6c8ebf" pointer-events="none"/><ellipse cx="155" cy="201" rx="10" ry="10" fill="url(#mx-gradient-dae8fc-1-7ea6e0-1-s-0)" stroke="#6c8ebf" pointer-events="none"/><path d="M 91 106 L 138.63 106" fill="none" stroke="#000000" stroke-miterlimit="10" pointer-events="none"/><path d="M 143.88 106 L 136.88 109.5 L 138.63 106 L 136.88 102.5 Z" fill="#000000" stroke="#000000" stroke-miterlimit="10" pointer-events="none"/><path d="M 91 59 L 138.63 59" fill="none" stroke="#000000" stroke-miterlimit="10" pointer-events="none"/><path d="M 143.88 59 L 136.88 62.5 L 138.63 59 L 136.88 55.5 Z" fill="#000000" stroke="#000000" stroke-miterlimit="10" pointer-events="none"/><path d="M 91 11 L 138.63 11" fill="none" stroke="#000000" stroke-miterlimit="10" pointer-events="none"/><path d="M 143.88 11 L 136.88 14.5 L 138.63 11 L 136.88 7.5 Z" fill="#000000" stroke="#000000" stroke-miterlimit="10" pointer-events="none"/><path d="M 91 154 L 138.63 154" fill="none" stroke="#000000" stroke-miterlimit="10" pointer-events="none"/><path d="M 143.88 154 L 136.88 157.5 L 138.63 154 L 136.88 150.5 Z" fill="#000000" stroke="#000000" stroke-miterlimit="10" pointer-events="none"/><path d="M 91 201 L 138.63 201" fill="none" stroke="#000000" stroke-miterlimit="10" pointer-events="none"/><path d="M 143.88 201 L 136.88 204.5 L 138.63 201 L 136.88 197.5 Z" fill="#000000" stroke="#000000" stroke-miterlimit="10" pointer-events="none"/></g></svg>