<?xml version="1.0" encoding="UTF-8"?>
<!DOCTYPE svg PUBLIC "-//W3C//DTD SVG 1.1//EN" "http://www.w3.org/Graphics/SVG/1.1/DTD/svg11.dtd">
<svg xmlns="http://www.w3.org/2000/svg" xmlns:xlink="http://www.w3.org/1999/xlink" width="93px" height="213px" version="1.1" style="background-color: rgb(255, 255, 255);"><defs><linearGradient x1="0%" y1="0%" x2="0%" y2="100%" id="mx-gradient-dae8fc-1-7ea6e0-1-s-0"><stop offset="0%" style="stop-color:#DAE8FC"/><stop offset="100%" style="stop-color:#7EA6E0"/></linearGradient></defs><g transform="translate(0.5,0.5)"><ellipse cx="11" cy="106" rx="9.999999999999998" ry="9.999999999999998" fill="url(#mx-gradient-dae8fc-1-7ea6e0-1-s-0)" stroke="#6c8ebf" pointer-events="none"/><ellipse cx="81" cy="11" rx="9.999999999999998" ry="9.999999999999998" fill="url(#mx-gradient-dae8fc-1-7ea6e0-1-s-0)" stroke="#6c8ebf" pointer-events="none"/><ellipse cx="81" cy="59" rx="9.999999999999998" ry="9.999999999999998" fill="url(#mx-gradient-dae8fc-1-7ea6e0-1-s-0)" stroke="#6c8ebf" pointer-events="none"/><ellipse cx="81" cy="106" rx="9.999999999999998" ry="9.999999999999998" fill="url(#mx-gradient-dae8fc-1-7ea6e0-1-s-0)" stroke="#6c8ebf" pointer-events="none"/><ellipse cx="81" cy="154" rx="9.999999999999998" ry="9.999999999999998" fill="url(#mx-gradient-dae8fc-1-7ea6e0-1-s-0)" stroke="#6c8ebf" pointer-events="none"/><ellipse cx="81" cy="201" rx="9.999999999999998" ry="9.999999999999998" fill="url(#mx-gradient-dae8fc-1-7ea6e0-1-s-0)" stroke="#6c8ebf" pointer-events="none"/><path d="M 20.94 106.33 L 64.63 106.04" fill="none" stroke="#000000" stroke-miterlimit="10" pointer-events="none"/><path d="M 69.88 106.01 L 62.91 109.55 L 64.63 106.04 L 62.86 102.55 Z" fill="#000000" stroke="#000000" stroke-miterlimit="10" pointer-events="none"/><path d="M 19.31 100.43 L 67.41 68.12" fill="none" stroke="#000000" stroke-miterlimit="10" pointer-events="none"/><path d="M 71.76 65.19 L 67.91 72 L 67.41 68.12 L 64 66.19 Z" fill="#000000" stroke="#000000" stroke-miterlimit="10" pointer-events="none"/><path d="M 16.93 97.95 L 71.3 24.18" fill="none" stroke="#000000" stroke-miterlimit="10" pointer-events="none"/><path d="M 74.41 19.96 L 73.08 27.67 L 71.3 24.18 L 67.44 23.51 Z" fill="#000000" stroke="#000000" stroke-miterlimit="10" pointer-events="none"/><path d="M 19.26 111.63 L 67.52 144.72" fill="none" stroke="#000000" stroke-miterlimit="10" pointer-events="none"/><path d="M 71.85 147.69 L 64.09 146.62 L 67.52 144.72 L 68.05 140.84 Z" fill="#000000" stroke="#000000" stroke-miterlimit="10" pointer-events="none"/><path d="M 16.93 114.05 L 71.3 187.82" fill="none" stroke="#000000" stroke-miterlimit="10" pointer-events="none"/><path d="M 74.41 192.04 L 67.44 188.49 L 71.3 187.82 L 73.08 184.33 Z" fill="#000000" stroke="#000000" stroke-miterlimit="10" pointer-events="none"/></g></svg>