<?xml version="1.0" encoding="utf-8"?>
<!-- Generator: Adobe Illustrator 13.0.2, SVG Export Plug-In  -->
<!DOCTYPE svg PUBLIC "-//W3C//DTD SVG 1.1//EN" "http://www.w3.org/Graphics/SVG/1.1/DTD/svg11.dtd" [
	<!ENTITY ns_flows "http://ns.adobe.com/Flows/1.0/">
]>
<svg version="1.1"
	 xmlns="http://www.w3.org/2000/svg" xmlns:xlink="http://www.w3.org/1999/xlink" xmlns:a="http://ns.adobe.com/AdobeSVGViewerExtensions/3.0/"
	 x="0px" y="0px" width="146px" height="37px" viewBox="-0.701 -0.043 146 37" enable-background="new -0.701 -0.043 146 37"
	 xml:space="preserve">
<defs>
</defs>
<g>
	<g>
		<g>
			<path fill="#004B89" d="M53.35,11.709c1.29,0,2.613,0,3.9,0c1.25,1.785,4.096,5.918,4.251,6.21
				c0.001-1.638,0.001-3.275,0.003-4.914c0-0.494-0.227-0.89-0.438-1.296c0.959-0.002,1.959,0,2.913,0
				c-0.185,0.34-0.363,0.831-0.363,1.234c0,0.602,0.002,6.961,0.002,10.523c-0.675,0.005-1.379-0.001-2.059,0
				c-1.911-2.682-5.306-7.443-5.4-7.679c-0.003,2.006,0,4.027,0.002,6.036c0.001,0.563,0.245,1.13,0.475,1.643
				c-1.008,0.001-2.046,0.001-3.055,0c0.206-0.482,0.399-1.211,0.403-1.743c0-0.011,0.003-8.435,0.001-8.444
				C53.878,12.592,53.727,12.266,53.35,11.709"/>
			<path fill="#004B89" d="M64.063,18.83c0,1.679,1.071,4.78,4.813,4.78c3.424,0,4.716-2.867,4.716-4.771
				c0-2.005-1.426-4.778-4.733-4.778C65.787,14.061,64.063,16.534,64.063,18.83 M68.868,15.836c0.328,0.014,1.421,0.03,1.421,3.003
				c0,2.522-0.979,2.957-1.412,2.957c-0.381,0-1.622,0.166-1.622-2.957C67.255,15.949,68.54,15.822,68.868,15.836z"/>
			<path fill="#004B89" d="M126.57,18.977c0,1.679,1.071,4.779,4.813,4.779c3.424,0,4.716-2.867,4.716-4.771
				c0-2.004-1.426-4.778-4.732-4.778C128.294,14.207,126.57,16.68,126.57,18.977 M131.375,15.982
				c0.328,0.014,1.421,0.029,1.421,3.003c0,2.521-0.979,2.957-1.412,2.957c-0.381,0-1.622,0.166-1.622-2.957
				C129.762,16.095,131.047,15.968,131.375,15.982z"/>
			<path fill="#004B89" d="M74.16,15.662c-0.163-1.006-0.316-0.993-0.424-1.192c1.117,0.001,3.17,0.003,3.424,0
				c0,0.479-0.004,0.999-0.005,1.473c0.407-0.888,1.428-1.731,2.435-1.441c-0.1,0.962-0.229,1.938-0.374,2.892
				c-0.25-0.273-0.684-0.327-1.038-0.231c-0.515,0.141-0.846,0.874-0.865,1.229c-0.067,1.267-0.032,2.953-0.031,3.706
				c0.001,0.531,0.176,0.97,0.463,1.382c-0.443,0.006-2.719-0.002-4.044,0c0.215-0.393,0.388-0.896,0.413-1.338
				C74.212,20.357,74.247,16.2,74.16,15.662"/>
			<path fill="#004B89" d="M79.659,17.136c0.221-2.538,2.764-2.856,3.85-2.905c1.03-0.053,2.121,0.087,3.154,0.332
				c0.105,0.867,0.201,1.753,0.268,2.629c-0.838-0.723-1.965-1.318-2.809-1.318c-0.981,0-1.163,0.544-1.152,0.744
				c0.038,0.685,0.483,0.643,2.246,1.128c1.03,0.283,2.184,0.826,2.184,2.847c0,2.056-1.972,2.801-2.208,2.889
				c-0.681,0.253-3.136,0.47-5.023-0.189c-0.132-0.915-0.27-1.856-0.41-2.782c0.901,0.767,2.079,1.653,3.3,1.571
				c0.249-0.016,1.169-0.068,1.111-0.892c-0.053-0.748-1.062-0.646-2.521-1.136C79.562,19.354,79.617,17.612,79.659,17.136"/>
			<path fill="#004B89" d="M87.739,13.374c-0.036-0.542-0.141-1.069-0.406-1.551c0.596,0,2.338-0.001,3.48,0
				c-0.006,2.118,0.024,4.256,0.017,6.368c0.803-0.885,1.36-1.537,2.208-2.514c0.286-0.33,0.214-0.729,0.038-1.084
				c0.485,0,2.485,0.006,3.69,0.006c-0.521,0.322-2.403,2.409-3.149,3.313c1.049,1.875,2.146,3.772,3.318,5.574
				c-1.459-0.001-3.8,0-4.412,0c0.082-0.206,0.338-0.599-0.025-1.219c-0.673-1.147-1.047-1.956-1.673-3.119
				c0,1.069,0.012,2.156,0.012,3.223c0,0.542,0.293,0.942,0.388,1.12c-0.407,0-2.722,0-3.813,0c0.097-0.28,0.29-0.578,0.29-1.521
				C87.702,19.669,87.736,14.086,87.739,13.374"/>
			<path fill="#004B89" d="M118.527,13.334c-0.035-0.542-0.14-1.069-0.404-1.551c0.595-0.001,2.338-0.001,3.48,0
				c-0.007,2.117,0.023,4.256,0.017,6.368c0.802-0.885,1.36-1.537,2.207-2.514c0.287-0.33,0.214-0.729,0.038-1.084
				c0.485,0,2.485,0.006,3.691,0.006c-0.522,0.322-2.404,2.409-3.149,3.313c1.049,1.875,2.145,3.773,3.317,5.574
				c-1.459-0.001-3.8,0-4.412,0c0.082-0.206,0.34-0.599-0.025-1.218c-0.673-1.148-1.047-1.957-1.673-3.121
				c0,1.07,0.013,2.157,0.013,3.224c0,0.542,0.292,0.942,0.387,1.12c-0.407,0-2.722,0-3.813,0c0.097-0.281,0.29-0.578,0.29-1.521
				C118.491,19.629,118.527,14.045,118.527,13.334"/>
			<path fill="#004B89" d="M100.203,15.712c-0.821,0-1.037,1.187-1.02,1.876c0.001,0.022,0.035,0.056,0.057,0.058
				c0.681,0.008,1.367,0.001,2.041-0.057C101.329,17.116,101.355,15.712,100.203,15.712 M95.71,18.581
				c0.053-1.501,1.011-4.459,4.769-4.459c3.858,0,4.217,3.731,4.125,5.213c-1.811,0-4.762,0-5.442,0
				c-0.104,0.64,0.205,2.368,1.465,2.537c1.606,0.215,2.696-0.475,3.868-1.433c-0.15,0.822-0.304,1.712-0.456,2.55
				c-0.762,0.518-2.014,0.716-3.073,0.716C95.769,23.705,95.671,19.659,95.71,18.581z"/>
			<path fill="#004B89" d="M109.741,15.076c0.041-1.866,1.344-3.588,4.347-3.564c1.439,0.012,2.348,0.287,3.317,0.571
				c-0.001,0.869-0.008,1.799-0.007,2.661c-0.558-0.5-1.706-1.525-2.964-1.45c-1.128,0.066-1.438,0.937-1.403,1.302
				c0.074,0.835-0.011,0.858,2.775,1.873c1.643,0.6,2.243,2.253,2.243,3.335c0,1.255-0.484,3.178-3.084,3.738
				c-1.654,0.36-3.493,0.003-5.123-0.557c-0.142-1.057-0.292-2.154-0.437-3.219c0.924,0.8,2.146,1.945,3.561,2.08
				c1.789,0.172,1.852-1.051,1.813-1.413c-0.057-0.521-0.37-0.993-1.693-1.521C112.677,18.75,109.674,18.121,109.741,15.076"/>
			<path fill="#004B89" d="M141.859,24.944c0.004-0.083,0.071-1.07-1.507-1.07c-1.303,0-1.442,0.71-1.442,1.069
				c0,0.79,0.869,1.082,1.442,1.102C141.794,26.096,141.852,25.159,141.859,24.944 M141.158,17.691c0-1.028-0.343-1.667-0.918-1.667
				c-0.552,0-0.876,0.814-0.876,1.666c0,1.653,0.749,1.644,0.889,1.642C140.364,19.331,141.158,19.194,141.158,17.691z
				 M140.056,14.541c1.698,0,3.431,0.011,5.127,0.081c-0.11,0.506-0.235,1.029-0.357,1.519c-0.285,0.002-0.507,0.001-0.899,0
				c0.599,1.187,0.45,1.963,0.287,2.448c-0.487,1.448-1.66,1.831-2.518,2.211c-0.816,0.36-0.679,0.536-0.672,0.638
				c0.017,0.212,0.274,0.19,1.507,0.483c1.017,0.242,2.671,1.068,2.393,2.986c-0.234,1.615-1.538,2.642-4.67,2.527
				c-0.403-0.015-3.596,0.027-3.961-1.883c-0.282-1.469,0.903-2.023,1.618-2.269c-0.688-0.334-1.04-0.771-0.861-1.058
				c0.45-0.726,1.505-1.101,2.16-1.524c-2.076-0.104-2.988-1.42-2.988-2.853C136.221,16.772,136.682,14.541,140.056,14.541z"/>
			<path fill="#72BF44" d="M10.993,27.403c0,0-2.877,2.294-4.293,3.399c-2.9,2.267-6.299-2.02-3.447-4.254
				c2.029-1.589,7.737-6.183,7.737-6.183l-0.015-3.441c0,0-4.726,3.84-6.463,5.19c-3.008,2.337-6.407-1.928-3.249-4.418
				c2.982-2.352,12.364-9.937,12.364-9.937l14.735,11.776l-0.018-3.416c0,0-5.475-4.42-8.221-6.635
				c-2.889-2.331,0.567-6.552,3.48-4.205c2.676,2.156,4.758,3.843,4.758,3.843s0.001-3.268-0.018-6.421
				c-0.02-3.636,5.52-3.572,5.52,0c0.001,2.431,0,6.306,0,6.306s1.647-1.331,4.177-3.334c2.969-2.351,6.359,1.962,3.464,4.32
				c-2.328,1.896-7.641,6.076-7.641,6.076v3.449c0,0,2.807-2.277,6.265-4.977c3.187-2.487,6.578,1.764,3.397,4.336
				c-2.884,2.332-12.431,9.854-12.431,9.854l-14.684-11.71v3.383c0,0,10.042,8.096,8.038,6.471c3.104,2.519-0.397,6.712-3.48,4.237
				c-3.267-2.622-4.558-3.729-4.558-3.729s0,3.552,0,6.323c0,3.613-5.42,3.613-5.42,0C10.993,30.619,10.993,27.403,10.993,27.403"/>
		</g>
	</g>
</g>
</svg>
